<svg width="82" height="31" viewBox="0 0 82 31" fill="none" xmlns="http://www.w3.org/2000/svg">
<g clip-path="url(#clip0_261_1758)">
<path d="M80.0596 0.333008C81.1329 0.333008 82.0465 1.20737 82.0235 2.34702C82.0032 3.36756 81.1627 4.29064 79.9987 4.26087C78.9903 4.23515 78.0686 3.4041 78.0984 2.23468C78.1241 1.21143 78.9632 0.339775 80.0596 0.333008ZM80.0515 4.04701C81.0436 4.04701 81.7812 3.25928 81.8097 2.36191C81.8421 1.32106 81.0124 0.560396 80.0948 0.548214C79.0851 0.533326 78.3285 1.34001 78.3109 2.25904C78.2919 3.2674 79.104 4.04431 80.0515 4.04837" fill="url(#paint0_linear_261_1758)"/>
<path d="M79.4062 3.39332V1.20335C79.4171 1.20335 79.4279 1.202 79.4374 1.202C79.6756 1.202 79.9138 1.20065 80.152 1.20335C80.2535 1.20471 80.3537 1.2223 80.4512 1.25208C80.5391 1.27915 80.6176 1.31975 80.684 1.38337C80.7462 1.44292 80.7882 1.51466 80.8125 1.59722C80.8437 1.7055 80.8518 1.81649 80.8315 1.92747C80.8098 2.04794 80.7543 2.15216 80.6555 2.23066C80.5838 2.28886 80.4999 2.3227 80.4106 2.343C80.4011 2.34571 80.3916 2.34977 80.3754 2.35518C80.5026 2.39985 80.5635 2.50136 80.6163 2.60558C80.7259 2.82485 80.8301 3.04817 80.9357 3.27015C80.9547 3.3094 80.9723 3.34865 80.9926 3.39196C80.9844 3.39196 80.9777 3.39467 80.9709 3.39467C80.8274 3.39467 80.6826 3.39467 80.5391 3.39467C80.5175 3.39467 80.5067 3.38926 80.4972 3.3676C80.4376 3.22684 80.3754 3.08742 80.3131 2.94801C80.2711 2.85327 80.2319 2.75852 80.1872 2.66649C80.1439 2.57445 80.0708 2.51489 79.9693 2.49594C79.9246 2.48782 79.8786 2.49188 79.8326 2.49188C79.8258 2.49188 79.8191 2.50407 79.815 2.51083C79.8123 2.5176 79.815 2.52708 79.815 2.53655C79.815 2.81131 79.815 3.08472 79.815 3.35948C79.815 3.38926 79.8069 3.39602 79.7785 3.39602C79.6553 3.39467 79.5335 3.39602 79.4062 3.39602M79.815 1.85303V2.13321C79.815 2.1508 79.815 2.16569 79.8407 2.16434C79.8976 2.16298 79.9544 2.16434 80.0113 2.16434C80.1033 2.16028 80.194 2.14674 80.2752 2.09531C80.3429 2.052 80.3889 1.99109 80.4011 1.91394C80.4092 1.8598 80.4011 1.80295 80.393 1.74746C80.3835 1.68249 80.3415 1.63647 80.286 1.60399C80.2211 1.56609 80.148 1.55256 80.0735 1.54849C79.9964 1.54443 79.9192 1.54849 79.8421 1.54714C79.8204 1.54714 79.815 1.55391 79.815 1.57556C79.815 1.66896 79.815 1.76235 79.815 1.85574" fill="url(#paint1_linear_261_1758)"/>
<path d="M80.0596 0.333008C81.1329 0.333008 82.0465 1.20737 82.0235 2.34702C82.0032 3.36756 81.1627 4.29064 79.9987 4.26087C78.9903 4.23515 78.0686 3.4041 78.0984 2.23468C78.1241 1.21143 78.9632 0.339775 80.0596 0.333008ZM80.0515 4.04701C81.0436 4.04701 81.7812 3.25928 81.8097 2.36191C81.8421 1.32106 81.0124 0.560396 80.0948 0.548214C79.0851 0.533326 78.3285 1.34001 78.3109 2.25904C78.2919 3.2674 79.104 4.04431 80.0515 4.04837" fill="url(#paint2_linear_261_1758)"/>
<path d="M79.4062 3.39332V1.20335C79.4171 1.20335 79.4279 1.202 79.4374 1.202C79.6756 1.202 79.9138 1.20065 80.152 1.20335C80.2535 1.20471 80.3537 1.2223 80.4512 1.25208C80.5391 1.27915 80.6176 1.31975 80.684 1.38337C80.7462 1.44292 80.7882 1.51466 80.8125 1.59722C80.8437 1.7055 80.8518 1.81649 80.8315 1.92747C80.8098 2.04794 80.7543 2.15216 80.6555 2.23066C80.5838 2.28886 80.4999 2.3227 80.4106 2.343C80.4011 2.34571 80.3916 2.34977 80.3754 2.35518C80.5026 2.39985 80.5635 2.50136 80.6163 2.60558C80.7259 2.82485 80.8301 3.04817 80.9357 3.27015C80.9547 3.3094 80.9723 3.34865 80.9926 3.39196C80.9844 3.39196 80.9777 3.39467 80.9709 3.39467C80.8274 3.39467 80.6826 3.39467 80.5391 3.39467C80.5175 3.39467 80.5067 3.38926 80.4972 3.3676C80.4376 3.22684 80.3754 3.08742 80.3131 2.94801C80.2711 2.85327 80.2319 2.75852 80.1872 2.66649C80.1439 2.57445 80.0708 2.51489 79.9693 2.49594C79.9246 2.48782 79.8786 2.49188 79.8326 2.49188C79.8258 2.49188 79.8191 2.50407 79.815 2.51083C79.8123 2.5176 79.815 2.52708 79.815 2.53655C79.815 2.81131 79.815 3.08472 79.815 3.35948C79.815 3.38926 79.8069 3.39602 79.7785 3.39602C79.6553 3.39467 79.5335 3.39602 79.4062 3.39602M79.815 1.85303V2.13321C79.815 2.1508 79.815 2.16569 79.8407 2.16434C79.8976 2.16298 79.9544 2.16434 80.0113 2.16434C80.1033 2.16028 80.194 2.14674 80.2752 2.09531C80.3429 2.052 80.3889 1.99109 80.4011 1.91394C80.4092 1.8598 80.4011 1.80295 80.393 1.74746C80.3835 1.68249 80.3415 1.63647 80.286 1.60399C80.2211 1.56609 80.148 1.55256 80.0735 1.54849C79.9964 1.54443 79.9192 1.54849 79.8421 1.54714C79.8204 1.54714 79.815 1.55391 79.815 1.57556C79.815 1.66896 79.815 1.76235 79.815 1.85574" fill="url(#paint3_linear_261_1758)"/>
<path d="M77.2822 21.43H77.6978L76.1277 30.0978H52.4062V29.7445C54.5759 29.7445 55.005 28.207 55.005 21.0645V9.03462C55.005 1.89219 54.5746 0.354617 52.4062 0.354617V0H75.2804L76.8478 8.66511H76.4322C75.5525 4.46926 74.6767 0.707881 64.6717 0.707881H60.8345V13.1709L62.3653 13.2007C66.2742 13.2765 67.8849 11.7876 67.8849 9.03326H68.3004V18.0137H67.8849C67.8849 15.2607 66.3324 13.9438 62.2557 13.8964L60.8345 13.8801V29.3858H65.5217C75.5267 29.3858 76.3998 25.6245 77.2822 21.4286V21.43Z" fill="url(#paint4_linear_261_1758)"/>
<path d="M40.9632 18.4888H31.9191V21.0699C31.9191 28.2069 32.3508 29.7432 34.5178 29.7432V30.0991H23.4922V29.7432C25.6618 29.7432 26.0909 28.2083 26.0909 21.0699V9.0292C26.0909 1.89219 25.6618 0.357324 23.4922 0.357324V0H40.9632C56.1765 0 55.7854 18.4888 40.9632 18.4888ZM39.5609 0.710588H31.9177V17.7796H39.5609C48.3533 17.7796 49.03 0.710588 39.5609 0.710588Z" fill="url(#paint5_linear_261_1758)"/>
<path d="M22.8648 21.43H23.2804L21.7103 30.0978H-0.00390625V29.7445C2.16305 29.7445 2.59481 28.2097 2.59481 21.0699V9.03056C2.59481 1.88949 2.16305 0.354617 -0.00390625 0.354617V0H11.019V0.353264C8.85205 0.353264 8.42163 1.88813 8.42163 9.02785V29.3858H11.1029C19.4906 29.3858 21.981 25.6245 22.8635 21.4286L22.8648 21.43Z" fill="url(#paint6_linear_261_1758)"/>
</g>
<defs>
<linearGradient id="paint0_linear_261_1758" x1="0.182752" y1="-76.4389" x2="126.073" y2="47.6541" gradientUnits="userSpaceOnUse">
<stop stop-color="#E9CEB8"/>
<stop offset="0.07" stop-color="#E7CBB4"/>
<stop offset="0.13" stop-color="#E1C4AA"/>
<stop offset="0.18" stop-color="#D7B798"/>
<stop offset="0.23" stop-color="#C9A680"/>
<stop offset="0.3" stop-color="#B39166"/>
<stop offset="0.41" stop-color="#977745"/>
<stop offset="0.5" stop-color="#866630"/>
<stop offset="0.56" stop-color="#806129"/>
<stop offset="0.67" stop-color="#81622A"/>
<stop offset="0.7" stop-color="#876731"/>
<stop offset="0.73" stop-color="#91713D"/>
<stop offset="0.75" stop-color="#9F7E4E"/>
<stop offset="0.77" stop-color="#B18F64"/>
<stop offset="0.79" stop-color="#C9A680"/>
<stop offset="0.88" stop-color="#D8B99B"/>
<stop offset="1" stop-color="#E9CEB8"/>
</linearGradient>
<linearGradient id="paint1_linear_261_1758" x1="0.128795" y1="-76.3861" x2="126.021" y2="47.7073" gradientUnits="userSpaceOnUse">
<stop stop-color="#E9CEB8"/>
<stop offset="0.07" stop-color="#E7CBB4"/>
<stop offset="0.13" stop-color="#E1C4AA"/>
<stop offset="0.18" stop-color="#D7B798"/>
<stop offset="0.23" stop-color="#C9A680"/>
<stop offset="0.3" stop-color="#B39166"/>
<stop offset="0.41" stop-color="#977745"/>
<stop offset="0.5" stop-color="#866630"/>
<stop offset="0.56" stop-color="#806129"/>
<stop offset="0.67" stop-color="#81622A"/>
<stop offset="0.7" stop-color="#876731"/>
<stop offset="0.73" stop-color="#91713D"/>
<stop offset="0.75" stop-color="#9F7E4E"/>
<stop offset="0.77" stop-color="#B18F64"/>
<stop offset="0.79" stop-color="#C9A680"/>
<stop offset="0.88" stop-color="#D8B99B"/>
<stop offset="1" stop-color="#E9CEB8"/>
</linearGradient>
<linearGradient id="paint2_linear_261_1758" x1="0.182752" y1="-76.4389" x2="126.073" y2="47.6541" gradientUnits="userSpaceOnUse">
<stop stop-color="#E9CEB8"/>
<stop offset="0.07" stop-color="#E7CBB4"/>
<stop offset="0.13" stop-color="#E1C4AA"/>
<stop offset="0.18" stop-color="#D7B798"/>
<stop offset="0.23" stop-color="#C9A680"/>
<stop offset="0.3" stop-color="#B39166"/>
<stop offset="0.41" stop-color="#977745"/>
<stop offset="0.5" stop-color="#866630"/>
<stop offset="0.56" stop-color="#806129"/>
<stop offset="0.67" stop-color="#81622A"/>
<stop offset="0.7" stop-color="#876731"/>
<stop offset="0.73" stop-color="#91713D"/>
<stop offset="0.75" stop-color="#9F7E4E"/>
<stop offset="0.77" stop-color="#B18F64"/>
<stop offset="0.79" stop-color="#C9A680"/>
<stop offset="0.88" stop-color="#D8B99B"/>
<stop offset="1" stop-color="#E9CEB8"/>
</linearGradient>
<linearGradient id="paint3_linear_261_1758" x1="0.128795" y1="-76.3861" x2="126.021" y2="47.7073" gradientUnits="userSpaceOnUse">
<stop stop-color="#E9CEB8"/>
<stop offset="0.07" stop-color="#E7CBB4"/>
<stop offset="0.13" stop-color="#E1C4AA"/>
<stop offset="0.18" stop-color="#D7B798"/>
<stop offset="0.23" stop-color="#C9A680"/>
<stop offset="0.3" stop-color="#B39166"/>
<stop offset="0.41" stop-color="#977745"/>
<stop offset="0.5" stop-color="#866630"/>
<stop offset="0.56" stop-color="#806129"/>
<stop offset="0.67" stop-color="#81622A"/>
<stop offset="0.7" stop-color="#876731"/>
<stop offset="0.73" stop-color="#91713D"/>
<stop offset="0.75" stop-color="#9F7E4E"/>
<stop offset="0.77" stop-color="#B18F64"/>
<stop offset="0.79" stop-color="#C9A680"/>
<stop offset="0.88" stop-color="#D8B99B"/>
<stop offset="1" stop-color="#E9CEB8"/>
</linearGradient>
<linearGradient id="paint4_linear_261_1758" x1="-14.1846" y1="-61.8644" x2="111.707" y2="62.2285" gradientUnits="userSpaceOnUse">
<stop stop-color="#E9CEB8"/>
<stop offset="0.07" stop-color="#E7CBB4"/>
<stop offset="0.13" stop-color="#E1C4AA"/>
<stop offset="0.18" stop-color="#D7B798"/>
<stop offset="0.23" stop-color="#C9A680"/>
<stop offset="0.3" stop-color="#B39166"/>
<stop offset="0.41" stop-color="#977745"/>
<stop offset="0.5" stop-color="#866630"/>
<stop offset="0.56" stop-color="#806129"/>
<stop offset="0.67" stop-color="#81622A"/>
<stop offset="0.7" stop-color="#876731"/>
<stop offset="0.73" stop-color="#91713D"/>
<stop offset="0.75" stop-color="#9F7E4E"/>
<stop offset="0.77" stop-color="#B18F64"/>
<stop offset="0.79" stop-color="#C9A680"/>
<stop offset="0.88" stop-color="#D8B99B"/>
<stop offset="1" stop-color="#E9CEB8"/>
</linearGradient>
<linearGradient id="paint5_linear_261_1758" x1="-28.3888" y1="-47.451" x2="97.5016" y2="76.642" gradientUnits="userSpaceOnUse">
<stop stop-color="#E9CEB8"/>
<stop offset="0.07" stop-color="#E7CBB4"/>
<stop offset="0.13" stop-color="#E1C4AA"/>
<stop offset="0.18" stop-color="#D7B798"/>
<stop offset="0.23" stop-color="#C9A680"/>
<stop offset="0.3" stop-color="#B39166"/>
<stop offset="0.41" stop-color="#977745"/>
<stop offset="0.5" stop-color="#866630"/>
<stop offset="0.56" stop-color="#806129"/>
<stop offset="0.67" stop-color="#81622A"/>
<stop offset="0.7" stop-color="#876731"/>
<stop offset="0.73" stop-color="#91713D"/>
<stop offset="0.75" stop-color="#9F7E4E"/>
<stop offset="0.77" stop-color="#B18F64"/>
<stop offset="0.79" stop-color="#C9A680"/>
<stop offset="0.88" stop-color="#D8B99B"/>
<stop offset="1" stop-color="#E9CEB8"/>
</linearGradient>
<linearGradient id="paint6_linear_261_1758" x1="-42.9315" y1="-32.6979" x2="82.9603" y2="91.3951" gradientUnits="userSpaceOnUse">
<stop stop-color="#E9CEB8"/>
<stop offset="0.07" stop-color="#E7CBB4"/>
<stop offset="0.13" stop-color="#E1C4AA"/>
<stop offset="0.18" stop-color="#D7B798"/>
<stop offset="0.23" stop-color="#C9A680"/>
<stop offset="0.3" stop-color="#B39166"/>
<stop offset="0.41" stop-color="#977745"/>
<stop offset="0.5" stop-color="#866630"/>
<stop offset="0.56" stop-color="#806129"/>
<stop offset="0.67" stop-color="#81622A"/>
<stop offset="0.7" stop-color="#876731"/>
<stop offset="0.73" stop-color="#91713D"/>
<stop offset="0.75" stop-color="#9F7E4E"/>
<stop offset="0.77" stop-color="#B18F64"/>
<stop offset="0.79" stop-color="#C9A680"/>
<stop offset="0.88" stop-color="#D8B99B"/>
<stop offset="1" stop-color="#E9CEB8"/>
</linearGradient>
<clipPath id="clip0_261_1758">
<rect width="82" height="31" fill="white"/>
</clipPath>
</defs>
</svg>
